<svg width="40" height="40" viewBox="0 0 40 40" fill="none" xmlns="http://www.w3.org/2000/svg">
<g clip-path="url(#clip0_27_51)">
<path d="M38.8984 11.1016L35.2969 14.7031C34.9297 15.0703 34.3359 15.0703 33.9688 14.7031L25.2969 6.03125C24.9297 5.66406 24.9297 5.07031 25.2969 4.70312L28.8984 1.10156C30.3594 -0.359375 32.7344 -0.359375 34.2031 1.10156L38.8984 5.79688C40.3672 7.25781 40.3672 9.63281 38.8984 11.1016ZM22.2031 7.79688L1.68751 28.3125L0.0312604 37.8047C-0.195302 39.0859 0.921885 40.1953 2.20314 39.9766L11.6953 38.3125L32.2109 17.7969C32.5781 17.4297 32.5781 16.8359 32.2109 16.4688L23.5391 7.79688C23.1641 7.42969 22.5703 7.42969 22.2031 7.79688V7.79688ZM9.69532 26.5547C9.26564 26.125 9.26564 25.4375 9.69532 25.0078L21.7266 12.9766C22.1563 12.5469 22.8438 12.5469 23.2734 12.9766C23.7031 13.4063 23.7031 14.0937 23.2734 14.5234L11.2422 26.5547C10.8125 26.9844 10.125 26.9844 9.69532 26.5547V26.5547ZM6.87501 33.125H10.625V35.9609L5.58595 36.8437L3.15626 34.4141L4.03907 29.375H6.87501V33.125Z" fill="#2A2A2A"/>
</g>
<defs>
<clipPath id="clip0_27_51">
<rect width="40" height="40" fill="white"/>
</clipPath>
</defs>
</svg>
