<svg width="40" height="40" viewBox="0 0 40 40" fill="none" xmlns="http://www.w3.org/2000/svg">
<path d="M36.25 32.5H3.75C3.41848 32.5 3.10054 32.6317 2.86612 32.8661C2.6317 33.1005 2.5 33.4185 2.5 33.75L2.5 36.25C2.5 36.5815 2.6317 36.8995 2.86612 37.1339C3.10054 37.3683 3.41848 37.5 3.75 37.5H36.25C36.5815 37.5 36.8995 37.3683 37.1339 37.1339C37.3683 36.8995 37.5 36.5815 37.5 36.25V33.75C37.5 33.4185 37.3683 33.1005 37.1339 32.8661C36.8995 32.6317 36.5815 32.5 36.25 32.5ZM36.25 22.5H3.75C3.41848 22.5 3.10054 22.6317 2.86612 22.8661C2.6317 23.1005 2.5 23.4185 2.5 23.75L2.5 26.25C2.5 26.5815 2.6317 26.8995 2.86612 27.1339C3.10054 27.3683 3.41848 27.5 3.75 27.5H36.25C36.5815 27.5 36.8995 27.3683 37.1339 27.1339C37.3683 26.8995 37.5 26.5815 37.5 26.25V23.75C37.5 23.4185 37.3683 23.1005 37.1339 22.8661C36.8995 22.6317 36.5815 22.5 36.25 22.5ZM36.25 12.5H3.75C3.41848 12.5 3.10054 12.6317 2.86612 12.8661C2.6317 13.1005 2.5 13.4185 2.5 13.75L2.5 16.25C2.5 16.5815 2.6317 16.8995 2.86612 17.1339C3.10054 17.3683 3.41848 17.5 3.75 17.5H36.25C36.5815 17.5 36.8995 17.3683 37.1339 17.1339C37.3683 16.8995 37.5 16.5815 37.5 16.25V13.75C37.5 13.4185 37.3683 13.1005 37.1339 12.8661C36.8995 12.6317 36.5815 12.5 36.25 12.5ZM36.25 2.5H3.75C3.41848 2.5 3.10054 2.6317 2.86612 2.86612C2.6317 3.10054 2.5 3.41848 2.5 3.75L2.5 6.25C2.5 6.58152 2.6317 6.89946 2.86612 7.13388C3.10054 7.3683 3.41848 7.5 3.75 7.5H36.25C36.5815 7.5 36.8995 7.3683 37.1339 7.13388C37.3683 6.89946 37.5 6.58152 37.5 6.25V3.75C37.5 3.41848 37.3683 3.10054 37.1339 2.86612C36.8995 2.6317 36.5815 2.5 36.25 2.5Z" fill="#AAAAAA"/>
</svg>
